<svg width="22" height="22" viewBox="0 0 22 22" fill="none" xmlns="http://www.w3.org/2000/svg">
<g clip-path="url(#clip0_767_271)">
<path d="M5.90753 0.218847L4.80548 1.32097C4.65831 1.46783 4.58496 1.637 4.58496 1.82826C4.58496 2.01905 4.65831 2.18814 4.80548 2.335L13.4689 10.9989L4.80571 19.6624C4.65854 19.8094 4.58519 19.9785 4.58519 20.1695C4.58519 20.3606 4.65854 20.5297 4.80571 20.6765L5.90784 21.7785C6.0547 21.9257 6.22379 21.999 6.41489 21.999C6.60584 21.999 6.77493 21.9254 6.92179 21.7785L17.1946 11.506C17.3415 11.3591 17.4149 11.1899 17.4149 10.9989C17.4149 10.8079 17.3415 10.639 17.1946 10.4922L6.92179 0.218847C6.77485 0.0719891 6.60576 -0.000975319 6.41489 -0.000975319C6.22379 -0.000975319 6.0547 0.0719891 5.90753 0.218847Z" fill="white"/>
</g>
<defs>
<clipPath id="clip0_767_271">
<rect width="22" height="22" fill="white" transform="translate(0 21.999) rotate(-90)"/>
</clipPath>
</defs>
</svg>
