<svg width="18" height="22" viewBox="0 0 18 22" fill="none" xmlns="http://www.w3.org/2000/svg">
<rect x="0.5" y="5.5" width="17" height="16" rx="1.5" stroke="black"/>
<path d="M4.50244 9C4.50244 9.27614 4.7263 9.5 5.00244 9.5C5.27858 9.5 5.50244 9.27614 5.50244 9L4.50244 9ZM12.5 8.99789C12.5003 9.27403 12.7243 9.49768 13.0005 9.49743C13.2766 9.49718 13.5003 9.27312 13.5 8.99697L12.5 8.99789ZM5.50244 9C5.50244 7.51231 5.44771 5.5994 5.89322 4.0474C6.11325 3.2809 6.44392 2.64912 6.92485 2.21045C7.39502 1.78159 8.04929 1.5 8.99885 1.5V0.5C7.83105 0.5 6.9271 0.854892 6.25095 1.47163C5.58555 2.07856 5.18178 2.9015 4.93204 3.77148C4.43802 5.49245 4.50244 7.57953 4.50244 9L5.50244 9ZM8.99885 1.5C9.87685 1.5 10.5017 1.78698 10.9673 2.235C11.4455 2.69517 11.7863 3.35568 12.022 4.14253C12.4965 5.72631 12.4988 7.64998 12.5 8.99789L13.5 8.99697C13.4988 7.67907 13.5038 5.60402 12.9799 3.85554C12.7165 2.97626 12.3079 2.13725 11.6607 1.51443C11.0008 0.879469 10.1241 0.5 8.99885 0.5V1.5Z" fill="black"/>
<circle cx="5" cy="10" r="1" fill="black"/>
<circle cx="13" cy="10" r="1" fill="black"/>
</svg>
