<svg width="19" height="19" viewBox="0 0 19 19" fill="none" xmlns="http://www.w3.org/2000/svg">
<path fill-rule="evenodd" clip-rule="evenodd" d="M12.4219 1.80859H6.42188C3.93659 1.80859 1.92188 3.82331 1.92188 6.30859V12.3086C1.92188 14.7939 3.93659 16.8086 6.42188 16.8086H12.4219C14.9072 16.8086 16.9219 14.7939 16.9219 12.3086V6.30859C16.9219 3.82331 14.9072 1.80859 12.4219 1.80859ZM3.42188 6.30859C3.42188 4.65174 4.76502 3.30859 6.42188 3.30859H12.4219C14.0787 3.30859 15.4219 4.65174 15.4219 6.30859V12.3086C15.4219 13.9654 14.0787 15.3086 12.4219 15.3086H6.42188C4.76502 15.3086 3.42188 13.9654 3.42188 12.3086V6.30859ZM9.42188 13.0586C7.35081 13.0586 5.67188 11.3797 5.67188 9.30859C5.67188 7.23753 7.35081 5.55859 9.42188 5.55859C11.4929 5.55859 13.1719 7.23753 13.1719 9.30859C13.1719 11.3797 11.4929 13.0586 9.42188 13.0586ZM9.42188 11.5586C10.6645 11.5586 11.6719 10.5512 11.6719 9.30859C11.6719 8.06595 10.6645 7.05859 9.42188 7.05859C8.17923 7.05859 7.17188 8.06595 7.17188 9.30859C7.17188 10.5512 8.17923 11.5586 9.42188 11.5586ZM13.9219 5.55859C13.9219 5.97281 13.5861 6.30859 13.1719 6.30859C12.7577 6.30859 12.4219 5.97281 12.4219 5.55859C12.4219 5.14438 12.7577 4.80859 13.1719 4.80859C13.5861 4.80859 13.9219 5.14438 13.9219 5.55859Z" fill="white"/>
</svg>
