<svg width="16" height="16" viewBox="0 0 16 16" fill="none" xmlns="http://www.w3.org/2000/svg">
<path fill-rule="evenodd" clip-rule="evenodd" d="M11.4219 0.808594H5.42188C2.93659 0.808594 0.921875 2.82331 0.921875 5.30859V11.3086C0.921875 13.7939 2.93659 15.8086 5.42188 15.8086H11.4219C13.9072 15.8086 15.9219 13.7939 15.9219 11.3086V5.30859C15.9219 2.82331 13.9072 0.808594 11.4219 0.808594ZM2.42188 5.30859C2.42188 3.65174 3.76502 2.30859 5.42188 2.30859H11.4219C13.0787 2.30859 14.4219 3.65174 14.4219 5.30859V11.3086C14.4219 12.9654 13.0787 14.3086 11.4219 14.3086H5.42188C3.76502 14.3086 2.42188 12.9654 2.42188 11.3086V5.30859ZM8.42188 12.0586C6.35081 12.0586 4.67188 10.3797 4.67188 8.30859C4.67188 6.23753 6.35081 4.55859 8.42188 4.55859C10.4929 4.55859 12.1719 6.23753 12.1719 8.30859C12.1719 10.3797 10.4929 12.0586 8.42188 12.0586ZM8.42188 10.5586C9.66452 10.5586 10.6719 9.55123 10.6719 8.30859C10.6719 7.06595 9.66452 6.05859 8.42188 6.05859C7.17923 6.05859 6.17188 7.06595 6.17188 8.30859C6.17188 9.55123 7.17923 10.5586 8.42188 10.5586ZM12.9219 4.55859C12.9219 4.97281 12.5861 5.30859 12.1719 5.30859C11.7577 5.30859 11.4219 4.97281 11.4219 4.55859C11.4219 4.14438 11.7577 3.80859 12.1719 3.80859C12.5861 3.80859 12.9219 4.14438 12.9219 4.55859Z" fill="white"/>
</svg>
