<svg width="28" height="28" viewBox="0 0 28 28" fill="none" xmlns="http://www.w3.org/2000/svg">
<path d="M26.6912 7.77512L19.6675 1.12109L14.8619 2.2301L14.4922 10.3628L17.0799 12.9505H25.5822L26.6912 7.77512Z" stroke="#787878" stroke-width="1.4"/>
<path d="M15.6016 11.1029L18.1892 5.55785L21.8859 3.33984" stroke="#787878" stroke-width="1.4"/>
<path d="M14.8672 2.23047L25.5876 12.9508" stroke="#787878" stroke-width="1.4"/>
<path d="M24.4764 5.55859L21.8888 9.25527L16.3438 12.2126" stroke="#787878" stroke-width="1.4"/>
<path d="M14.8635 10.7305L3.77344 21.8205" stroke="#787878" stroke-width="1.4"/>
<path d="M17.0822 12.9492L5.99219 24.0393" stroke="#787878" stroke-width="1.4"/>
<path d="M7.11343 17.8032C6.74377 17.1871 5.79049 15.7563 3.7731 15.9099C2.84085 15.9807 0.976019 16.7992 0.976563 19.1016C0.977206 21.8265 3.13646 22.0048 3.7731 22.1576" stroke="#787878" stroke-width="1.4"/>
<circle cx="4.28429" cy="19.2569" r="0.917104" fill="#787878"/>
<path d="M10.0461 20.7167C10.6571 21.0947 12.0748 22.0674 11.8938 24.0825C11.8103 25.0137 10.9665 26.8672 8.66427 26.8353C5.93963 26.7976 5.79076 24.6362 5.64664 23.9975" stroke="#787878" stroke-width="1.4"/>
<circle r="0.917104" transform="matrix(0.013601 -0.999908 -0.999908 -0.013601 8.55639 23.5236)" fill="#787878"/>
<path d="M3.64764 21.6484C3.16428 22.565 4.36013 24.6531 5.93929 24.1697" stroke="#787878" stroke-width="1.4"/>
</svg>
