<svg width="28" height="25" viewBox="0 0 28 25" fill="none" xmlns="http://www.w3.org/2000/svg">
<path d="M7 4.5265C8.8212 2.33356 11.2346 1 13.8764 1C16.6394 1 19.1486 2.45846 21 4.83333" stroke="#787878" stroke-width="1.5" stroke-miterlimit="3.8637"/>
<path d="M14.0349 23.9987H13.9651C6.79882 23.9617 1 18.2393 1 11.2125C1 7.56917 2.55429 4.2827 5.05844 1.9571L8.38096 5.26811C6.74172 6.75083 5.74655 8.85474 5.74655 11.2125C5.74655 15.6834 9.43916 19.3316 14 19.3502C18.5608 19.3316 22.2534 15.6834 22.2534 11.2125C22.2534 8.85474 21.2583 6.75083 19.619 5.26804L22.9416 1.95703C25.4456 4.2827 27 7.56917 27 11.2125C27 18.2393 21.2011 23.9617 14.0349 23.9987Z" stroke="#787878" stroke-width="1.5" stroke-miterlimit="3.8637"/>
</svg>
