<svg width="32" height="33" viewBox="0 0 32 33" fill="none" xmlns="http://www.w3.org/2000/svg">
<rect x="11.0938" y="14.5703" width="9.33973" height="9.33973" rx="3" transform="rotate(45 11.0938 14.5703)" stroke="#787878" stroke-width="1.4"/>
<circle cx="23.7734" cy="8.75601" r="3.73589" transform="rotate(45 23.7734 8.75601)" stroke="#787878" stroke-width="1.4"/>
<path d="M20.6016 9.81641L15.7145 14.7035" stroke="#787878" stroke-width="1.4"/>
<path d="M22.7188 11.9297L17.8317 16.8168" stroke="#787878" stroke-width="1.4"/>
<path d="M9.24604 12.1915H13.4727L20.3411 19.0598V23.2865" stroke="#787878" stroke-width="1.4"/>
<path d="M9.24586 12.1916L2.11334 19.3242L2.11334 23.5508L8.98169 30.4192L13.2084 30.4192L20.3409 23.2867" stroke="#787878" stroke-width="1.4" stroke-linecap="round"/>
<path d="M13.0781 12.0625L12.5498 13.7796L12.0215 15.4967" stroke="#787878" stroke-width="1.4"/>
<path d="M9.25 12.1914L10.4388 15.2293" stroke="#787878" stroke-width="1.4"/>
<path d="M20.3359 19.3203L18.6188 19.8486L16.9018 20.377" stroke="#787878" stroke-width="1.4"/>
<path d="M20.2031 23.1523L17.1652 21.9636" stroke="#787878" stroke-width="1.4"/>
<path d="M2.11719 23.0234L3.83428 22.4951L5.55136 21.9668" stroke="#787878" stroke-width="1.4"/>
<path d="M2.25 19.1914L5.28793 20.3802" stroke="#787878" stroke-width="1.4"/>
<path d="M9.375 30.2852L9.90333 28.5681L10.4317 26.851" stroke="#787878" stroke-width="1.4"/>
<path d="M13.2031 30.1562L12.0144 27.1183" stroke="#787878" stroke-width="1.4"/>
</svg>
